<?xml version="1.0" standalone="no"?>
<!DOCTYPE svg PUBLIC "-//W3C//DTD SVG 20010904//EN"
 "http://www.w3.org/TR/2001/REC-SVG-20010904/DTD/svg10.dtd">
<svg version="1.0" xmlns="http://www.w3.org/2000/svg"
 width="100.000000pt" height="100.000000pt" viewBox="0 0 1024.000000 1024.000000"
 preserveAspectRatio="xMidYMid meet">

<g transform="translate(0.000000,1024.000000) scale(0.100000,-0.100000)"
fill="#ffffff" stroke="none">
<path d="M2575 9419 c-551 -33 -991 -205 -1296 -509 -296 -295 -450 -681 -489
-1235 -8 -115 -10 -859 -8 -2655 4 -2736 0 -2545 63 -2828 116 -527 409 -916
860 -1140 250 -125 544 -196 913 -221 201 -14 4659 -15 4930 -1 226 11 430 39
593 80 662 167 1071 566 1233 1202 89 349 88 286 84 3148 -4 2302 -5 2493 -21
2600 -102 669 -370 1078 -871 1330 -215 108 -446 174 -757 217 -114 15 -333
17 -2614 19 -1369 1 -2548 -2 -2620 -7z m25 -1344 c105 -25 249 -75 331 -116
153 -76 276 -214 320 -361 18 -58 21 -87 17 -167 -11 -196 -103 -347 -278
-456 -25 -15 -46 -29 -48 -30 -7 -6 58 -99 237 -340 103 -137 216 -290 253
-340 l67 -90 -287 -3 c-158 -1 -296 0 -307 2 -12 4 -92 107 -200 261 -99 141
-199 283 -223 316 l-42 59 -80 0 -80 0 0 -320 0 -320 -270 0 -270 0 0 960 0
960 398 0 c318 0 410 -3 462 -15z m1639 -345 c199 -25 359 -107 498 -254 83
-87 121 -150 165 -276 32 -92 33 -100 33 -255 0 -137 -3 -171 -23 -239 -39
-135 -95 -230 -192 -326 -169 -168 -335 -233 -600 -233 -255 -1 -429 66 -589
225 -177 176 -267 437 -232 676 34 232 151 422 338 549 167 113 382 160 602
133z m1353 -304 l3 -304 304 298 c259 253 310 299 340 304 20 3 276 6 569 6
l532 0 0 -452 c0 -268 4 -480 11 -518 21 -132 83 -189 206 -190 98 0 123 14
214 123 l49 58 0 490 0 489 270 0 270 0 0 -780 c0 -745 -1 -780 -18 -780 -69
0 -201 73 -306 170 l-42 39 -50 -50 c-85 -87 -157 -124 -302 -155 -88 -18
-300 -18 -399 1 -171 32 -328 143 -391 275 -58 124 -62 165 -62 726 l0 506
-32 -29 c-18 -15 -174 -170 -346 -344 l-314 -316 15 -29 c9 -16 96 -106 194
-200 98 -94 270 -266 382 -382 l203 -212 -343 0 -344 -1 -169 173 c-92 95
-231 239 -307 320 l-139 147 0 -320 0 -319 -280 0 -280 0 0 779 0 780 280 1
280 0 2 -304z m145 -1689 c100 -27 220 -92 278 -152 28 -29 70 -87 92 -131 78
-150 73 -38 73 -1764 0 -1653 1 -1617 -49 -1733 -50 -115 -159 -219 -294 -282
-145 -67 -136 -66 -744 -63 l-548 3 -88 37 c-118 49 -174 86 -250 167 -72 76
-101 129 -128 234 -18 69 -19 141 -19 1637 0 1718 -4 1614 60 1740 60 119 215
254 339 295 94 31 145 33 686 31 457 -2 539 -5 592 -19z"/>
<path d="M2282 7438 l3 -313 69 -3 c131 -6 264 54 337 151 81 108 78 230 -8
351 -54 76 -183 126 -327 126 l-76 0 2 -312z"/>
<path d="M4082 7370 c-45 -10 -99 -56 -144 -121 -115 -166 -101 -515 27 -667
33 -39 101 -72 148 -72 121 0 229 123 263 296 59 311 -96 608 -294 564z"/>
<path d="M4959 5301 c-81 -27 -113 -82 -129 -221 -13 -113 -23 -154 -49 -197
-28 -45 -49 -56 -196 -104 -262 -85 -315 -130 -315 -271 1 -163 31 -266 89
-308 43 -30 134 -59 221 -71 97 -13 134 -25 171 -56 41 -35 48 -57 65 -203 17
-148 23 -166 72 -203 58 -45 129 -60 252 -55 89 4 113 8 150 29 60 33 79 70
101 202 35 210 51 230 230 289 68 22 146 48 174 57 28 9 65 32 86 52 52 52 69
111 69 245 0 103 -2 116 -27 164 -39 74 -93 103 -268 140 -210 45 -227 61
-245 230 -6 58 -18 126 -26 152 -18 55 -66 102 -121 118 -50 14 -271 22 -304
11z m219 -556 c144 -34 212 -115 220 -261 6 -109 -14 -167 -80 -239 -43 -47
-60 -58 -120 -76 -154 -47 -287 14 -363 165 -62 123 -7 304 115 381 72 46 129
53 228 30z"/>
<path d="M4443 3326 c-90 -29 -133 -83 -133 -166 0 -102 69 -159 204 -167 108
-7 182 13 224 62 73 83 46 212 -55 261 -48 23 -181 29 -240 10z"/>
<path d="M4993 3323 c-90 -31 -135 -110 -112 -195 25 -96 125 -145 275 -135
51 3 97 12 121 23 76 38 111 137 75 216 -23 52 -48 75 -99 94 -51 18 -206 17
-260 -3z"/>
<path d="M5603 3331 c-55 -14 -107 -47 -130 -81 -41 -60 -25 -151 36 -203 48
-40 95 -50 217 -46 123 5 162 20 201 79 49 72 23 162 -65 224 -39 28 -50 30
-135 33 -50 1 -106 -2 -124 -6z"/>
</g>
</svg>
