<!-- sample rectangle -->


<!-- <svg xmlns="http://www.w3.org/2000/svg" width="200" height="200" fill="currentColor" class="bi bi-tv-fill" viewBox="-1 -1 18 18">
  <path style="fill: white" d="M2.5 13.5A.5.5 0 0 1 3 13h10a.5.5 0 0 1 0 1H3a.5.5 0 0 1-.5-.5M2 2h12s2 0 2 2v6s0 2-2 2H2s-2 0-2-2V4s0-2 2-2"/>
</svg> -->

<svg xmlns="http://www.w3.org/2000/svg" width="200" height="200" fill="currentColor" class="bi bi-power" viewBox="-1 -1 18 18">
  <rect fill="white" width="100%" height="100%" x="-1" y="-1"></rect>
  <path style="fill: red" d="M7.5 1v7h1V1z"/>
  <path style="fill: red" d="M3 8.812a5 5 0 0 1 2.578-4.375l-.485-.874A6 6 0 1 0 11 3.616l-.501.865A5 5 0 1 1 3 8.812"/>
</svg>